<?xml version="1.0" standalone="no"?>
<!DOCTYPE svg PUBLIC "-//W3C//DTD SVG 20010904//EN"
 "http://www.w3.org/TR/2001/REC-SVG-20010904/DTD/svg10.dtd">
<svg version="1.0" xmlns="http://www.w3.org/2000/svg"
 width="835.000000pt" height="347.000000pt" viewBox="0 0 835.000000 347.000000"
 preserveAspectRatio="xMidYMid meet">

<g transform="translate(0.000000,347.000000) scale(0.100000,-0.100000)"
fill="#000000" stroke="none">
<path d="M371 2899 c-129 -17 -236 -98 -308 -233 l-38 -71 -3 -700 c-2 -480 1
-716 8 -752 40 -190 202 -345 405 -388 96 -20 1354 -11 1453 11 153 34 260
126 315 272 21 56 22 66 25 766 3 764 4 755 -50 860 -26 52 -109 138 -167 175
-106 67 -81 65 -866 67 -390 1 -739 -2 -774 -7z m1459 -261 c47 -20 106 -87
119 -135 7 -25 11 -258 11 -683 0 -719 3 -687 -70 -757 -61 -59 -47 -58 -745
-58 l-640 0 -57 28 c-65 32 -132 101 -150 156 -17 49 -24 1252 -8 1312 11 41
66 110 104 132 32 18 258 24 856 22 463 -1 550 -4 580 -17z"/>
<path d="M1101 2415 c-75 -21 -148 -62 -198 -112 l-43 -42 0 44 c0 35 -6 52
-29 77 l-29 33 -111 3 -111 4 0 -581 0 -581 145 0 145 0 0 309 c0 386 8 435
86 515 45 46 96 72 161 81 112 15 208 -30 256 -118 21 -41 22 -52 25 -414 l3
-373 145 0 144 0 0 403 c0 433 -3 464 -54 565 -31 62 -112 137 -184 170 -50
23 -71 27 -177 29 -83 2 -137 -2 -174 -12z"/>
<path d="M3070 2231 c-50 -16 -88 -41 -120 -77 l-32 -37 3 51 4 52 -97 0 -98
0 0 -395 0 -395 100 0 100 0 0 256 c0 283 4 304 63 346 45 32 140 36 184 9 64
-40 68 -57 71 -348 l3 -263 101 0 100 0 -4 283 c-4 240 -8 290 -23 335 -23 67
-81 133 -142 162 -51 24 -169 36 -213 21z"/>
<path d="M4633 2230 c-96 -20 -184 -87 -227 -176 -106 -217 -46 -487 131 -590
127 -75 307 -70 430 11 57 38 118 120 129 171 l6 32 -99 1 -99 2 -23 -31 c-61
-83 -185 -96 -260 -27 -30 27 -60 93 -61 130 l0 27 281 0 282 0 -6 83 c-17
267 -218 419 -484 367z m152 -141 c22 -6 51 -21 64 -32 29 -27 60 -93 61 -129
l0 -28 -175 0 c-195 0 -186 -4 -164 73 14 50 55 95 104 112 49 17 60 18 110 4z"/>
<path d="M6137 2229 c-129 -30 -227 -135 -227 -243 l0 -26 85 0 c84 0 86 0 96
28 34 88 148 130 226 82 53 -32 76 -102 46 -138 -15 -19 -40 -25 -168 -42
-241 -32 -320 -84 -332 -218 -8 -85 3 -127 43 -171 96 -107 296 -119 418 -26
26 19 48 35 51 35 3 0 5 -18 5 -40 l0 -40 96 0 96 0 -4 283 c-4 229 -8 292
-22 335 -19 58 -72 124 -120 149 -76 39 -200 53 -289 32z m239 -461 c-3 -18
-5 -52 -5 -75 -1 -50 -45 -107 -98 -129 -48 -21 -132 -18 -170 6 -51 31 -63
108 -24 154 28 32 67 45 162 56 51 6 95 13 98 15 2 3 13 5 23 5 14 0 17 -6 14
-32z"/>
<path d="M7025 2231 c-49 -13 -112 -49 -133 -76 -11 -14 -22 -25 -24 -25 -2 0
-2 20 0 45 l4 45 -101 0 -101 0 0 -545 0 -545 104 0 105 0 -3 195 -4 195 38
-33 c58 -53 115 -70 213 -65 106 5 177 38 241 109 97 107 121 319 56 492 -45
120 -162 204 -296 212 -38 2 -82 1 -99 -4z m119 -185 c38 -16 78 -64 95 -115
18 -54 14 -189 -8 -236 -62 -137 -244 -150 -328 -24 -23 35 -28 54 -31 129 -3
54 0 102 8 125 15 46 65 104 105 121 40 17 117 17 159 0z"/>
<path d="M7858 2224 c-28 -8 -65 -31 -89 -54 -23 -22 -43 -40 -44 -40 -2 0 0
20 3 45 l5 45 -102 0 -101 0 0 -545 0 -545 100 0 100 0 0 194 0 195 38 -34
c54 -50 117 -68 216 -63 209 12 326 156 326 403 0 141 -35 240 -110 315 -87
87 -223 121 -342 84z m151 -185 c87 -48 124 -186 86 -315 -39 -132 -194 -183
-295 -97 -116 98 -97 353 31 416 48 24 133 22 178 -4z"/>
<path d="M3550 1948 c0 -298 8 -359 53 -427 83 -125 323 -146 435 -39 l32 32
0 -42 0 -42 95 0 95 0 0 395 0 395 -94 0 -94 0 -4 -252 c-3 -229 -5 -257 -23
-292 -28 -55 -64 -79 -127 -83 -61 -5 -110 16 -142 60 -20 27 -21 44 -24 298
l-3 269 -100 0 -99 0 0 -272z"/>
<path d="M5104 2183 c13 -37 221 -580 266 -695 l23 -58 101 0 102 0 58 158
c32 86 94 252 136 367 43 116 83 222 89 238 l11 27 -103 0 -103 0 -31 -92
c-17 -51 -60 -177 -96 -279 l-64 -186 -16 51 c-9 28 -54 153 -99 278 l-83 228
-102 0 -102 0 13 -37z"/>
</g>
</svg>
